<svg id="Layer_1" xmlns="http://www.w3.org/2000/svg" viewBox="0 0 61.9 147.2"><style>.st0{fill:#69c5cc}</style><path class="st0" d="M5.6 9.2c-5.4 7-7 17.7-4.3 30.1 1.4 6.5 4.9 12.5 10.3 17.6 5.4 5.1 11.3 8 14.1 9.2l1 36.2c-1.8.5-3.4 1.5-4.8 2.9-1.9 2.1-3 4.7-2.9 7.5l.7 24.2c.1 2.8 1.2 5.4 3.3 7.4 2.1 1.9 4.7 3 7.5 2.9 2.8-.1 5.4-1.3 7.4-3.3 1.9-2.1 3-4.7 2.9-7.5l-.7-24.2c-.1-4.7-3.7-8.8-8.2-9.9l-1-36.2c5.1-2.5 20.2-11.4 22.8-28.2 2.2-13.7-.5-24.8-7.4-31.3C41.5 2 34.8-.2 26.4 0 17.1.3 10.1 3.4 5.6 9.2z"/><path d="M14.4 10.1c-5.3 6.8-6.8 17.1-4.1 29.3 1.4 6.4 4.7 12.1 10 17.1 5.2 4.9 11 7.8 13.7 9l1 35.1c-1.8.5-3.3 1.4-4.6 2.8-1.9 2-2.9 4.6-2.8 7.3l.7 23.5c.1 2.7 1.2 5.3 3.2 7.1 2 1.9 4.6 2.9 7.3 2.8 2.7-.1 5.3-1.2 7.1-3.2 1.9-2 2.9-4.6 2.8-7.3L48 110c-.1-4.6-3.6-8.6-8-9.6l-1-35.1c4.9-2.5 19.6-11.1 22.2-27.3 2.1-13.3-.5-24-7.2-30.4C49.3 3.2 42.8 1 34.6 1.3c-9 .1-15.8 3.1-20.2 8.8zM34 106.7c.9-1 2.2-1.6 3.6-1.6s2.7.5 3.7 1.4c1 1 1.6 2.2 1.6 3.6l.7 23.5c0 1.4-.5 2.7-1.4 3.7-1 1-2.2 1.6-3.6 1.6-2.8.1-5.2-2.3-5.3-5l-.7-23.5c-.1-1.3.4-2.7 1.4-3.7zm.8-100.5c6.8-.2 12.1 1.5 15.7 5 5.5 5.2 7.5 14.4 5.6 25.9-2.2 14.3-16.1 22-19.8 23.8-2.1-.9-7.7-3.5-12.6-8.2-4.5-4.2-7.4-9.1-8.5-14.5-2.3-10.6-1.2-19.5 3.2-25.1 3.4-4.3 9-6.7 16.4-6.9z"/><path d="M29.6 21.7l.5 17.7c0 1.4-1.1 2.6-2.5 2.6-.7 0-1.3-.2-1.8-.7-.5-.4-.8-1.1-.8-1.8l-.5-17.7c0-1.4 1.1-2.6 2.5-2.6s2.6 1.1 2.6 2.5zM43.3 18.8c1.4 0 2.6 1.1 2.6 2.5l.5 17.7c0 1.4-1.1 2.6-2.5 2.6-.7 0-1.3-.2-1.8-.7-.5-.4-.8-1.1-.8-1.8l-.5-17.7c0-1.4 1.1-2.6 2.5-2.6z"/></svg>