<svg id="Layer_1" xmlns="http://www.w3.org/2000/svg" viewBox="0 0 80.7 118.1"><style>.st0{fill:#69c5cc}</style><path class="st0" d="M72 21.7c-.1 1.4-1.3 2.5-2.7 2.5-1.4-.1-2.6-1.3-2.5-2.7.1-2.6-.3-10.1-3.4-13.3-1.9-2-5-2-6.9 0-3.1 3.2-3.5 10.7-3.3 13.3v70c0 14.7-11.9 26.6-26.6 26.6C11.9 118.1 0 106.2 0 91.5c0-1.4 1.2-2.6 2.6-2.6H48V21.6c-.1-1.1-.4-11.7 4.8-17 3.8-4 10.6-4 14.4 0C72.3 9.9 72 20.5 72 21.7z"/><path d="M76 2.9C72.3-1 65.7-1 62 2.9c-5 5.2-4.7 15.5-4.7 16.5v65.3h-44c-1.4 0-2.5 1.1-2.5 2.5 0 14.2 11.6 25.8 25.8 25.8 14.2 0 25.8-11.6 25.8-25.8v-68c-.1-2.5.3-9.8 3.3-12.9 1.8-1.9 4.8-1.9 6.7 0 3 3.1 3.4 10.4 3.3 12.9-.1 1.4 1 2.6 2.4 2.6s2.6-1 2.6-2.4c0-1 .3-11.3-4.7-16.5zM36.6 108.1c-10.6 0-19.4-8-20.6-18.2h41.2c-1.3 10.2-10 18.2-20.6 18.2z"/></svg>